<svg xmlns="http://www.w3.org/2000/svg" xmlns:xlink="http://www.w3.org/1999/xlink" version="1.1" x="0px" y="0px" viewBox="0 0 86 86" xml:space="preserve" class="style0"><style>.style0{enable-background:	new 0 0 86 86;}</style><style type="text/css">.st0{fill:#FFFFFF;}.st1{fill:#FEFEFE;}</style><g><path class="st0" d="M85.52 85.889H0.48c-0.234 0-0.425-0.19-0.425-0.425V0.425C0.056 0.2 0.2 0 0.5 0H85.52 c0.234 0 0.4 0.2 0.4 0.425v85.039C85.944 85.7 85.8 85.9 85.5 85.889z M57.599 85.039h27.496V57.543H57.599V85.039z M29.252 85.039h27.497V57.543H29.252V85.039z M0.905 85.039h27.497V57.543H0.905V85.039z M57.599 56.693h27.496V29.196H57.599 V56.693z M29.252 56.693h27.497V29.196H29.252V56.693z M0.905 56.693h27.497V29.196H0.905V56.693z M57.599 28.347h27.496V0.85 H57.599V28.347z M29.252 28.347h27.497V0.85H29.252V28.347z M0.905 28.347h27.497V0.85H0.905V28.347z"/><path class="st1" d="M32.446 14.571c0 5.8 4.7 10.5 10.5 10.488s10.488-4.699 10.488-10.488 c0-5.789-4.699-10.488-10.488-10.488S32.446 8.8 32.4 14.571L32.446 14.571z"/><path class="st1" d="M60.886 43.011c0 5.8 4.7 10.5 10.5 10.488S81.862 48.8 81.9 43.011s-4.699-10.488-10.488-10.488 S60.886 37.2 60.9 43.011L60.886 43.011z"/><path class="st1" d="M60.886 71.331c0 5.8 4.7 10.5 10.5 10.488s10.488-4.699 10.488-10.488 c0-5.789-4.699-10.488-10.488-10.488S60.886 65.5 60.9 71.331L60.886 71.331z"/><path class="st1" d="M32.446 71.331c0 5.8 4.7 10.5 10.5 10.488s10.488-4.699 10.488-10.488 c0-5.789-4.699-10.488-10.488-10.488S32.446 65.5 32.4 71.331L32.446 71.331z"/><path class="st1" d="M4.126 71.331c0 5.8 4.7 10.5 10.5 10.488c5.789 0 10.488-4.699 10.488-10.488 c0-5.789-4.699-10.488-10.488-10.488C8.825 60.8 4.1 65.5 4.1 71.331L4.126 71.331z"/></g><g></g><g></g><g></g><g></g><g></g><g></g><g></g><g></g><g></g><g></g><g></g><g></g><g></g><g></g><g></g></svg>